<svg xmlns="http://www.w3.org/2000/svg" viewBox="0 0 480 480">
    <!-- Icons made by catkuro from www.flaticon.com-->
    <path d="M360 248v-27.648438c4.480469-1.414062 8.828125-3.222656 12.992188-5.398437l19.59375 19.582031c3.121093 3.125 8.1875 3.125 11.308593 0l22.640625-22.640625c3.125-3.121093 3.125-8.1875 0-11.308593l-19.582031-19.59375c2.175781-4.164063 3.984375-8.511719 5.398437-12.992188H440c4.417969 0 8-3.582031 8-8v-32c0-4.417969-3.582031-8-8-8h-27.648438c-1.414062-4.480469-3.222656-8.828125-5.398437-12.992188l19.582031-19.59375c3.125-3.121093 3.125-8.1875 0-11.308593l-22.640625-22.640625c-1.078125-1.03125-2.429687-1.726563-3.894531-2.007813V24c0-13.253906-10.746094-24-24-24H24C10.746094 0 0 10.746094 0 24v352c0 13.253906 10.746094 24 24 24h115.457031c.28125 1.464844.976563 2.816406 2.007813 3.894531l22.640625 22.640625c3.121093 3.125 8.1875 3.125 11.308593 0l19.59375-19.582031c4.164063 2.175781 8.511719 3.984375 12.992188 5.398437V440c0 4.417969 3.582031 8 8 8h32c4.417969 0 8-3.582031 8-8v-32c0-4.417969-3.582031-8-8-8s-8 3.582031-8 8v24h-16v-25.761719c0-3.722656-2.570312-6.953125-6.199219-7.789062-7.027343-1.632813-13.738281-4.421875-19.847656-8.257813-3.164063-1.996094-7.285156-1.53125-9.929687 1.113282l-18.261719 18.296874-11.363281-11.363281.578124-.574219L176.695312 380c2.644532-2.644531 3.109376-6.765625 1.113282-9.929688-3.835938-6.109374-6.625-12.816406-8.257813-19.847656-.828125-3.636718-4.058593-6.21875-7.789062-6.222656H136v-16h25.761719c3.722656 0 6.953125-2.570312 7.789062-6.199219 1.632813-7.027343 4.421875-13.738281 8.257813-19.847656 1.996094-3.164063 1.53125-7.285156-1.113282-9.929687l-18.296874-18.261719 11.363281-11.363281L188 280.695312c2.644531 2.644532 6.765625 3.109376 9.929688 1.113282 6.109374-3.835938 12.816406-6.625 19.847656-8.257813 3.636718-.828125 6.21875-4.058593 6.222656-7.789062V240h16v25.761719c0 3.722656 2.570312 6.953125 6.199219 7.789062 7.027343 1.632813 13.738281 4.421875 19.847656 8.257813 3.738281 2.359375 8.683594 1.242187 11.042969-2.496094s1.238281-8.679688-2.496094-11.039062c-5.804688-3.664063-12.050781-6.5625-18.59375-8.625V232c0-4.417969-3.582031-8-8-8h-32c-4.417969 0-8 3.582031-8 8v27.648438c-4.480469 1.414062-8.828125 3.222656-12.992188 5.398437l-19.59375-19.582031c-3.121093-3.125-8.1875-3.125-11.308593 0l-22.640625 22.640625c-3.125 3.121093-3.125 8.1875 0 11.308593l19.582031 19.59375c-2.175781 4.164063-3.984375 8.511719-5.398437 12.992188H128c-4.417969 0-8 3.582031-8 8v32c0 4.417969 3.582031 8 8 8h27.648438c1.414062 4.480469 3.222656 8.828125 5.398437 12.992188L150.039062 384H24c-4.417969 0-8-3.582031-8-8V80h227.457031c-.664062 2.652344.097657 5.460938 2.007813 7.414062l19.582031 19.59375c-2.175781 4.164063-3.984375 8.511719-5.398437 12.992188H232c-4.417969 0-8 3.582031-8 8v32c0 4.417969 3.582031 8 8 8h27.648438c1.414062 4.480469 3.222656 8.828125 5.398437 12.992188l-19.582031 19.59375c-3.125 3.121093-3.125 8.1875 0 11.308593l22.640625 22.640625c3.121093 3.125 8.1875 3.125 11.308593 0l19.59375-19.582031c4.164063 2.175781 8.511719 3.984375 12.992188 5.398437V248c0 4.417969 3.582031 8 8 8h32c4.417969 0 8-3.582031 8-8zM16 24c0-4.417969 3.582031-8 8-8h352c4.417969 0 8 3.582031 8 8v38.039062l-11.007812 11.007813C368.828125 70.871094 364.480469 69.0625 360 67.648438V40c0-4.417969-3.582031-8-8-8h-32c-4.417969 0-8 3.582031-8 8v27.648438c-4.480469 1.414062-8.828125 3.222656-12.992188 5.398437l-19.59375-19.582031c-3.121093-3.125-8.1875-3.125-11.308593 0L257.601562 64H16zm334.199219 182.449219C346.570312 207.285156 344 210.515625 344 214.238281V240h-16v-25.761719c0-3.722656-2.570312-6.953125-6.199219-7.789062-7.027343-1.632813-13.738281-4.421875-19.847656-8.257813-3.164063-1.996094-7.285156-1.53125-9.929687 1.113282l-18.261719 18.296874-11.363281-11.363281L280.695312 188c2.644532-2.644531 3.109376-6.765625 1.113282-9.929688-3.835938-6.109374-6.625-12.816406-8.257813-19.847656-.828125-3.636718-4.058593-6.21875-7.789062-6.222656H240v-16h25.761719c3.722656 0 6.953125-2.570312 7.789062-6.199219 1.632813-7.027343 4.421875-13.738281 8.257813-19.847656 1.996094-3.164063 1.53125-7.285156-1.113282-9.929687l-18.296874-18.261719 11.363281-11.363281L292 88.695312c2.644531 2.644532 6.765625 3.109376 9.929688 1.113282 6.109374-3.835938 12.816406-6.625 19.847656-8.257813 3.636718-.828125 6.21875-4.058593 6.222656-7.789062V48h16v25.761719c0 3.722656 2.570312 6.953125 6.199219 7.789062 7.027343 1.632813 13.738281 4.421875 19.847656 8.257813 3.164063 1.996094 7.285156 1.53125 9.929687-1.113282l18.261719-18.296874 11.363281 11.363281L391.304688 100c-2.644532 2.644531-3.109376 6.765625-1.113282 9.929688 3.835938 6.109374 6.625 12.816406 8.257813 19.847656.828125 3.636718 4.058593 6.21875 7.789062 6.222656H432v16h-25.761719c-3.722656 0-6.953125 2.570312-7.789062 6.199219-1.632813 7.027343-4.421875 13.738281-8.257813 19.847656-1.996094 3.164063-1.53125 7.285156 1.113282 9.929687l18.296874 18.261719-11.363281 11.363281L380 199.304688c-2.644531-2.644532-6.765625-3.109376-9.929688-1.113282-6.117187 3.839844-12.832031 6.628906-19.871093 8.257813zm0 0"/>
    <path d="M472 344h-27.648438c-1.414062-4.480469-3.222656-8.828125-5.398437-12.992188l19.582031-19.59375c3.125-3.121093 3.125-8.1875 0-11.308593l-22.640625-22.640625c-3.121093-3.125-8.1875-3.125-11.308593 0l-19.59375 19.582031c-4.164063-2.175781-8.511719-3.984375-12.992188-5.398437V264c0-4.417969-3.582031-8-8-8h-32c-4.417969 0-8 3.582031-8 8v27.648438c-4.480469 1.414062-8.828125 3.222656-12.992188 5.398437l-19.59375-19.582031c-3.121093-3.125-8.1875-3.125-11.308593 0l-22.640625 22.640625c-3.125 3.121093-3.125 8.1875 0 11.308593l19.582031 19.59375c-2.175781 4.164063-3.984375 8.511719-5.398437 12.992188H264c-4.417969 0-8 3.582031-8 8v32c0 4.417969 3.582031 8 8 8h27.648438c1.414062 4.480469 3.222656 8.828125 5.398437 12.992188l-19.582031 19.59375c-3.125 3.121093-3.125 8.1875 0 11.308593l22.640625 22.640625c3.121093 3.125 8.1875 3.125 11.308593 0l19.59375-19.582031c4.164063 2.175781 8.511719 3.984375 12.992188 5.398437V472c0 4.417969 3.582031 8 8 8h32c4.417969 0 8-3.582031 8-8v-27.648438c4.480469-1.414062 8.828125-3.222656 12.992188-5.398437l19.59375 19.582031c3.121093 3.125 8.1875 3.125 11.308593 0l22.640625-22.640625c3.125-3.121093 3.125-8.1875 0-11.308593l-19.582031-19.59375c2.175781-4.164063 3.984375-8.511719 5.398437-12.992188H472c4.417969 0 8-3.582031 8-8v-32c0-4.417969-3.582031-8-8-8zm-8 32h-25.761719c-3.722656 0-6.953125 2.570312-7.789062 6.199219-1.632813 7.027343-4.421875 13.738281-8.257813 19.847656-1.996094 3.164063-1.53125 7.285156 1.113282 9.929687l18.296874 18.261719-11.363281 11.363281L412 423.304688c-2.644531-2.644532-6.765625-3.109376-9.929688-1.113282-6.109374 3.835938-12.816406 6.625-19.847656 8.257813-3.636718.828125-6.21875 4.058593-6.222656 7.789062V464h-16v-25.761719c0-3.722656-2.570312-6.953125-6.199219-7.789062-7.027343-1.632813-13.738281-4.421875-19.847656-8.257813-3.164063-1.996094-7.285156-1.53125-9.929687 1.113282l-18.261719 18.296874-11.363281-11.363281L312.695312 412c2.644532-2.644531 3.109376-6.765625 1.113282-9.929688-3.835938-6.109374-6.625-12.816406-8.257813-19.847656-.828125-3.636718-4.058593-6.21875-7.789062-6.222656H272v-16h25.761719c3.722656 0 6.953125-2.570312 7.789062-6.199219 1.632813-7.027343 4.421875-13.738281 8.257813-19.847656 1.996094-3.164063 1.53125-7.285156-1.113282-9.929687l-18.296874-18.261719 11.363281-11.363281L324 312.695312c2.644531 2.644532 6.765625 3.109376 9.929688 1.113282 6.109374-3.835938 12.816406-6.625 19.847656-8.257813 3.636718-.828125 6.21875-4.058593 6.222656-7.789062V272h16v25.761719c0 3.722656 2.570312 6.953125 6.199219 7.789062 7.027343 1.632813 13.738281 4.421875 19.847656 8.257813 3.164063 1.996094 7.285156 1.53125 9.929687-1.113282l18.261719-18.296874 11.363281 11.363281L423.304688 324c-2.644532 2.644531-3.109376 6.765625-1.113282 9.929688 3.835938 6.109374 6.625 12.816406 8.257813 19.847656.828125 3.636718 4.058593 6.21875 7.789062 6.222656H464zm0 0M48 32H32c-4.417969 0-8 3.582031-8 8s3.582031 8 8 8h16c4.417969 0 8-3.582031 8-8s-3.582031-8-8-8zm0 0M96 32H72c-4.417969 0-8 3.582031-8 8s3.582031 8 8 8h24c4.417969 0 8-3.582031 8-8s-3.582031-8-8-8zm0 0M176 32h-56c-4.417969 0-8 3.582031-8 8s3.582031 8 8 8h56c4.417969 0 8-3.582031 8-8s-3.582031-8-8-8zm0 0M336 112c4.417969 0 8-3.582031 8-8s-3.582031-8-8-8c-26.507812 0-48 21.492188-48 48s21.492188 48 48 48c4.417969 0 8-3.582031 8-8s-3.582031-8-8-8c-17.671875 0-32-14.328125-32-32s14.328125-32 32-32zm0 0"/>
    <path d="M368 320c-26.507812 0-48 21.492188-48 48s21.492188 48 48 48 48-21.492188 48-48c-.027344-26.5-21.5-47.972656-48-48zm0 80c-17.671875 0-32-14.328125-32-32s14.328125-32 32-32 32 14.328125 32 32-14.328125 32-32 32zm0 0"/>
</svg>