<svg viewBox="0 1 511 512" xmlns="http://www.w3.org/2000/svg"><path d="M146 35a7 7 0 00-4 2 8 8 0 00-2 9 7 7 0 007 4h3l2-2a7 7 0 00-6-13zm0 0M173 35a8 8 0 00-7 8v1l2 4a8 8 0 004 2h4a7 7 0 004-4l1-3a7 7 0 00-8-8zm0 0M199 35a8 8 0 00-7 8 7 7 0 006 7h4l2-2a7 7 0 000-11l-5-2zm0 0"/><path d="M503 428h-21V159c0-17-14-30-30-30h-48V33c0-18-15-33-33-33H140c-18 0-33 15-33 33v96H59c-16 0-29 13-29 30v269H8c-4 0-7 3-7 7v45c0 18 14 32 31 32h60a7 7 0 100-15H32c-9 0-17-8-17-17v-37h153l9 22c2 5 7 7 12 7h134c5 0 9-2 11-7l10-22h152v37c0 9-8 17-17 17H138a7 7 0 100 15h341c17 0 32-14 32-32v-45c0-4-4-7-8-7zM122 33c0-10 8-18 18-18h231c10 0 18 8 18 18v37H122zM69 180v248H45V159c0-9 6-15 14-15h48v20H85c-9 0-16 7-16 16zm252 278H190l-6-15h143zm106-30H84V180l1-1h22v123c0 18 15 33 33 33h231c18 0 33-15 33-33v-20a7 7 0 10-15 0v20c0 10-8 18-18 18H140c-10 0-18-8-18-18V85h267v150a7 7 0 1015 0v-56h23v1zm40 0h-25V180c0-9-7-16-15-16h-23v-20h48c8 0 15 6 15 15zm0 0"/><path d="M116 368h102a7 7 0 100-15H116a7 7 0 100 15zm0 0M246 368h42a7 7 0 100-15h-42a7 7 0 000 15zm0 0M395 353h-79a7 7 0 000 15h79a7 7 0 100-15zm0 0M167 384h-51a7 7 0 100 15h51a7 7 0 000-15zm0 0M316 384H203a7 7 0 000 15h113a7 7 0 100-15zm0 0M395 384h-56a7 7 0 100 15h56a7 7 0 100-15zm0 0M193 169c0 18 13 25 22 25h1a7 7 0 000-15l-4-1c-2-1-4-3-4-9v-10c0-3-1-5-3-6l-5-4 5-3c2-1 3-3 3-6v-10c0-4 1-8 4-9l4-2c4 0 7-3 7-7s-3-7-7-7h-1c-9 0-22 7-22 25v6l-7 5a10 10 0 000 17l7 5v6zm0 0M295 119l4 2c3 1 4 5 4 9v10c0 3 2 5 4 6l4 3-4 4c-2 1-4 3-4 6v10c0 6-2 8-3 9l-4 1a7 7 0 000 15c9 0 22-7 22-25v-6l7-5c3-1 4-4 5-6 1-5-1-9-4-11l-8-5v-6c0-18-13-25-22-25-4 0-8 3-8 7s3 7 7 7zm0 0M168 208h-21a7 7 0 100 15h21a7 7 0 100-15zm0 0M364 208H200a7 7 0 000 15h164a7 7 0 000-15zm0 0M168 242h-21a7 7 0 100 15h21a7 7 0 100-15zm0 0M364 242H200a7 7 0 000 15h164a7 7 0 000-15zm0 0M168 277h-21a7 7 0 000 15h21a7 7 0 000-15zm0 0M364 277H200a7 7 0 000 15h164a7 7 0 000-15zm0 0"/><path d="M223 168a7 7 0 005 4h4l3-2a7 7 0 00-7-12 7 7 0 00-4 2 8 8 0 00-1 8zm0 0M250 170a8 8 0 004 2h5a7 7 0 004-4v-3a7 7 0 00-15 0v1l2 4zm0 0M278 171a8 8 0 002 1 8 8 0 005 0l2-2a7 7 0 000-10 8 8 0 00-11 0 8 8 0 002 11zm0 0"/></svg>