<svg xmlns="http://www.w3.org/2000/svg" viewBox="0 0 512 512"><path d="M512 188.03v-64.06c0-11.265-12.83-19.664-39.224-25.676-18.167-4.138-41.19-6.741-66.057-7.533V27.5c0-4.142-3.357-7.5-7.5-7.5H282.452C279.178 8.472 268.563 0 256 0s-23.178 8.472-26.452 20H119.69c-4.143 0-7.5 3.358-7.5 7.5v63.091c-27.498.497-53.129 3.183-72.967 7.702C12.83 104.307 0 112.706 0 123.97v64.06c0 7.085 5.081 13.036 15.417 17.973C5.083 210.938 0 216.884 0 223.97v64.06c0 7.085 5.081 13.036 15.417 17.973C5.083 310.938 0 316.884 0 323.97v64.06c0 11.264 12.83 19.662 39.224 25.675 20.273 4.619 46.595 7.324 74.776 7.734V484.5c0 4.142 3.357 7.5 7.5 7.5h108.048c3.274 11.528 13.889 20 26.452 20s23.178-8.472 26.452-20H399.22c4.143 0 7.5-3.358 7.5-7.5v-63.261c24.866-.792 47.889-3.395 66.057-7.534C499.17 407.692 512 399.293 512 388.03v-64.06c0-7.087-5.083-13.033-15.417-17.967C506.919 301.066 512 295.115 512 288.03v-64.06c0-7.087-5.083-13.033-15.417-17.967C506.919 201.066 512 195.115 512 188.03zm-112.78-56.56c4.143 0 7.5-3.358 7.5-7.5v-18.202c22.005.727 42.567 2.922 59.111 6.364 23.791 4.951 29.717 10.347 30.946 11.838-1.229 1.491-7.155 6.887-30.946 11.838-20.555 4.277-47.308 6.632-75.331 6.632s-54.776-2.355-75.331-6.632c-23.791-4.951-29.717-10.347-30.946-11.838 1.229-1.491 7.155-6.887 30.946-11.838 20.555-4.277 47.308-6.632 75.331-6.632.408 0 .813.005 1.22.006v18.464c0 4.142 3.357 7.5 7.5 7.5zM256 15c6.893 0 12.5 5.607 12.5 12.5S262.893 40 256 40s-12.5-5.607-12.5-12.5S249.107 15 256 15zM15 187.732v-45.989c6.149 2.995 14.208 5.622 24.224 7.903 22.063 5.026 51.282 7.794 82.276 7.794 12.674 0 25.14-.464 37.052-1.38 4.13-.317 7.221-3.923 6.902-8.053-.316-4.129-3.903-7.219-8.053-6.903-11.53.886-23.609 1.336-35.901 1.336-28.023 0-54.776-2.355-75.331-6.632-23.791-4.951-29.717-10.347-30.946-11.838 1.229-1.491 7.155-6.887 30.946-11.838 18.264-3.8 41.426-6.079 66.021-6.541v18.378c0 4.142 3.357 7.5 7.5 7.5s7.5-3.358 7.5-7.5v-18.436c25.938.296 50.482 2.611 69.641 6.598 23.959 4.985 29.799 10.423 30.972 11.869-1.846 2.463-11.95 8.903-41.037 13.668-4.088.669-6.859 4.526-6.189 8.614.67 4.087 4.525 6.858 8.613 6.189 17.008-2.786 29.909-6.321 38.811-10.659v45.919c-.52.788-4.671 5.938-25.966 10.978-.092.022-.185.041-.276.066-1.553.365-3.19.729-4.929 1.091-20.556 4.277-47.309 6.633-75.329 6.633-28.02 0-54.773-2.355-75.329-6.633-1.737-.361-3.372-.725-4.923-1.09-.1-.028-.202-.049-.303-.073C19.668 193.667 15.52 188.52 15 187.732zm24.254 25.98c22.06 5.023 51.267 7.788 82.246 7.788s60.186-2.766 82.246-7.788c18.09 4.486 22.935 8.927 24.031 10.258-1.229 1.49-7.155 6.887-30.948 11.838-20.557 4.277-47.309 6.633-75.329 6.633s-54.772-2.355-75.329-6.633c-23.793-4.951-29.719-10.348-30.948-11.838 1.096-1.331 5.941-5.772 24.031-10.258zm0 100c22.06 5.023 51.267 7.788 82.246 7.788s60.186-2.766 82.246-7.788c18.09 4.486 22.935 8.927 24.031 10.258-1.229 1.49-7.155 6.887-30.948 11.838-20.557 4.277-47.309 6.633-75.329 6.633s-54.772-2.355-75.329-6.633c-23.793-4.951-29.719-10.348-30.948-11.838 1.096-1.331 5.941-5.772 24.031-10.258zm6.917 86.155C20.316 394.487 15.56 388.581 15 387.732v-45.99c6.149 2.995 14.208 5.621 24.224 7.903 22.064 5.027 51.283 7.795 82.276 7.795s60.212-2.768 82.276-7.795c10.016-2.282 18.074-4.908 24.224-7.903v45.99c-.56.849-5.316 6.755-31.171 12.135-20.556 4.277-47.309 6.633-75.329 6.633s-54.773-2.355-75.329-6.633zM256 497c-6.893 0-12.5-5.607-12.5-12.5S249.107 472 256 472s12.5 5.607 12.5 12.5S262.893 497 256 497zm241-109.268c-.56.849-5.316 6.755-31.171 12.135-20.556 4.277-47.309 6.633-75.329 6.633-7.595 0-15.179-.173-22.541-.516-4.157-.203-7.647 3.006-7.841 7.144-.192 4.138 3.006 7.648 7.144 7.84 7.595.353 15.413.532 23.238.532.408 0 .812-.006 1.22-.007V477H282.452c-3.274-11.528-13.889-20-26.452-20s-23.178 8.472-26.452 20H129v-55.561c28.182-.41 54.503-3.115 74.776-7.734C230.17 407.692 243 399.293 243 388.03v-64.06c0-7.087-5.083-13.033-15.417-17.967C237.919 301.066 243 295.115 243 288.03c0-4.142-3.357-7.5-7.5-7.5-4.039 0-7.333 3.193-7.494 7.193-.491.755-4.582 5.917-25.912 10.973-.117.027-.235.052-.351.084-1.549.364-3.181.727-4.914 1.088-20.556 4.277-47.309 6.633-75.329 6.633s-54.773-2.355-75.329-6.633c-1.731-.36-3.361-.723-4.909-1.086-.124-.035-.25-.062-.376-.09-21.225-5.035-25.367-10.173-25.886-10.96v-45.99c6.149 2.995 14.208 5.621 24.224 7.903 22.064 5.027 51.283 7.795 82.276 7.795s60.212-2.768 82.276-7.795c10.016-2.282 18.074-4.908 24.224-7.903V256c0 4.142 3.357 7.5 7.5 7.5s7.5-3.358 7.5-7.5v-32.03c0-7.087-5.083-13.033-15.417-17.967C237.919 201.066 243 195.115 243 188.03v-64.06c0-11.265-12.83-19.664-39.224-25.676-20.707-4.717-47.719-7.445-76.586-7.762V35h102.358c3.274 11.528 13.889 20 26.452 20s23.178-8.472 26.452-20H391.72v55.507c-.407-.001-.812-.007-1.22-.007-30.994 0-60.214 2.768-82.276 7.794C281.83 104.307 269 112.706 269 123.97v64.06c0 7.085 5.081 13.036 15.417 17.973C274.083 210.938 269 216.884 269 223.97v64.06c0 7.085 5.081 13.036 15.417 17.973C274.083 310.938 269 316.884 269 323.97v64.06c0 14.839 22.784 25.087 67.721 30.458.302.036.602.054.899.054 3.744 0 6.981-2.8 7.438-6.611.491-4.113-2.444-7.846-6.558-8.337-37.54-4.487-52.782-12.503-54.5-15.833v-46.02c6.149 2.995 14.208 5.621 24.224 7.903 22.064 5.027 51.283 7.795 82.276 7.795 30.993 0 60.212-2.768 82.276-7.795 10.016-2.282 18.074-4.908 24.224-7.903v45.991zm-.223-63.763c-1.229 1.49-7.155 6.887-30.948 11.838-20.557 4.277-47.309 6.633-75.329 6.633s-54.772-2.355-75.329-6.633c-23.793-4.951-29.719-10.348-30.948-11.838 1.096-1.331 5.941-5.772 24.031-10.258 22.06 5.023 51.267 7.788 82.246 7.788s60.186-2.766 82.246-7.788c18.09 4.486 22.935 8.927 24.031 10.258zm.224-36.236c-.52.786-4.664 5.926-25.899 10.961-.121.028-.242.053-.361.087-1.548.364-3.179.727-4.912 1.087-20.556 4.277-47.309 6.633-75.329 6.633s-54.773-2.355-75.329-6.633c-1.73-.36-3.359-.722-4.905-1.086-.128-.036-.259-.064-.389-.093-21.216-5.033-25.357-10.169-25.876-10.956v-45.99c6.149 2.995 14.208 5.621 24.224 7.903 22.064 5.027 51.283 7.795 82.276 7.795 30.993 0 60.212-2.768 82.276-7.795 10.016-2.282 18.074-4.908 24.224-7.903v45.99zm-.224-63.764c-1.229 1.49-7.155 6.887-30.948 11.838-20.557 4.277-47.309 6.633-75.329 6.633s-54.772-2.355-75.329-6.633c-23.793-4.951-29.719-10.348-30.948-11.838 1.096-1.331 5.941-5.772 24.031-10.258 22.06 5.023 51.267 7.788 82.246 7.788s60.186-2.766 82.246-7.788c18.09 4.486 22.935 8.927 24.031 10.258zm.223-36.238c-.52.789-4.67 5.938-25.955 10.976-.097.023-.195.043-.291.07-1.552.365-3.188.729-4.925 1.09-20.556 4.277-47.309 6.633-75.329 6.633s-54.773-2.355-75.329-6.633c-1.736-.361-3.369-.725-4.92-1.089-.104-.029-.21-.051-.316-.076-21.268-5.037-25.416-10.183-25.935-10.971v-45.989c6.149 2.995 14.208 5.622 24.224 7.903 22.063 5.026 51.282 7.794 82.276 7.794s60.214-2.768 82.276-7.794c10.016-2.282 18.074-4.908 24.224-7.903v45.989z"/><circle cx="48.13" cy="186.05" r="7.5"/><circle cx="48.2" cy="164.55" r="7.5"/><circle cx="48.13" cy="286.05" r="7.5"/><circle cx="48.2" cy="264.55" r="7.5"/><circle cx="48.13" cy="386.05" r="7.5"/><circle cx="48.2" cy="364.55" r="7.5"/><circle cx="320.13" cy="186.05" r="7.5"/><circle cx="320.2" cy="164.55" r="7.5"/><circle cx="320.13" cy="286.05" r="7.5"/><circle cx="320.2" cy="264.55" r="7.5"/><circle cx="320.13" cy="386.05" r="7.5"/><circle cx="320.2" cy="364.55" r="7.5"/></svg>