<svg class="w-16 fill-current mx-auto text-blue-500" xmlns="http://www.w3.org/2000/svg" viewBox="0 0 512 512">
    <!-- Icons made by Smashicons from www.flaticon.com -->
    <path d="M469.333 0H42.667C19.114.028.028 19.114 0 42.667v426.667C.028 492.886 19.114 511.972 42.667 512h426.667c23.552-.028 42.638-19.114 42.667-42.667V42.667C511.972 19.114 492.886.028 469.333 0zm25.6 469.333c0 14.138-11.461 25.6-25.6 25.6H42.667c-14.138 0-25.6-11.461-25.6-25.6v-384h477.867v384zm0-401.066H17.067v-25.6c0-14.138 11.462-25.6 25.6-25.6h426.667c14.138 0 25.6 11.462 25.6 25.6v25.6z"/>
    <path d="M59.733 34.133H51.2c-4.713 0-8.533 3.82-8.533 8.533S46.487 51.2 51.2 51.2h8.533c4.713 0 8.533-3.82 8.533-8.533s-3.82-8.534-8.533-8.534zM99.925 36.608c-3.422-3.157-8.695-3.157-12.117 0-.753.83-1.359 1.782-1.792 2.816-.911 2.066-.911 4.419 0 6.485.435 1.033 1.041 1.985 1.792 2.816 2.443 2.443 6.126 3.153 9.301 1.792 1.033-.435 1.985-1.041 2.816-1.792.751-.831 1.357-1.783 1.792-2.816.91-2.066.91-4.419 0-6.485-.433-1.034-1.039-1.986-1.792-2.816zM134.059 36.608c-3.422-3.157-8.695-3.157-12.117 0-.753.83-1.359 1.782-1.792 2.816-1.361 3.175-.651 6.859 1.792 9.301.83.753 1.782 1.359 2.816 1.792 2.066.911 4.419.911 6.485 0 1.043-.414 1.999-1.022 2.816-1.792 1.602-1.607 2.494-3.789 2.475-6.059.025-1.119-.208-2.229-.683-3.243-.433-1.033-1.039-1.985-1.792-2.815zM460.8 34.133H170.667c-4.713 0-8.533 3.82-8.533 8.533s3.82 8.533 8.533 8.533H460.8c4.713 0 8.533-3.82 8.533-8.533s-3.82-8.533-8.533-8.533zM51.2 315.733h119.467c4.713 0 8.533-3.82 8.533-8.533s-3.82-8.533-8.533-8.533H67.14L128 207.36v65.707c0 4.713 3.82 8.533 8.533 8.533s8.533-3.821 8.533-8.533V179.2c0-.282-.137-.512-.162-.794-.051-.58-.165-1.152-.341-1.707-.154-.508-.357-.999-.606-1.468-.242-.464-.528-.904-.853-1.314-.366-.456-.781-.871-1.237-1.237-.213-.179-.333-.418-.563-.572-.23-.154-.478-.162-.708-.29-.512-.276-1.053-.497-1.613-.657-.537-.165-1.088-.276-1.647-.333-.264-.068-.532-.122-.802-.162-.282 0-.529.137-.802.162-.579.058-1.15.172-1.707.341-.503.155-.992.355-1.459.597-.475.257-.924.56-1.34.905-.444.367-.853.776-1.22 1.22-.171.213-.418.341-.572.572l-85.333 128c-1.747 2.619-1.911 5.986-.426 8.762 1.485 2.776 4.377 4.509 7.525 4.508zM136.533 332.8c-4.713 0-8.533 3.821-8.533 8.533v25.6c0 4.713 3.82 8.533 8.533 8.533s8.533-3.82 8.533-8.533v-25.6c.001-4.712-3.82-8.533-8.533-8.533zM332.8 315.733h119.467c4.713 0 8.533-3.82 8.533-8.533s-3.821-8.533-8.533-8.533H348.74l60.86-91.307v65.707c0 4.713 3.82 8.533 8.533 8.533s8.533-3.821 8.533-8.533V179.2c0-.282-.137-.512-.162-.794-.051-.58-.165-1.152-.341-1.707-.154-.508-.357-.999-.606-1.468-.242-.464-.528-.904-.853-1.314-.366-.456-.781-.871-1.237-1.237-.213-.179-.333-.418-.563-.572-.23-.154-.478-.162-.708-.29-.512-.276-1.053-.497-1.613-.657-.537-.165-1.088-.276-1.647-.333-.264-.068-.532-.122-.802-.162-.282 0-.529.137-.802.162-.579.056-1.151.171-1.707.341-.508.152-1 .355-1.468.606-.474.251-.92.551-1.331.896-.451.363-.863.772-1.229 1.22-.171.213-.418.341-.572.572l-85.333 128c-1.748 2.62-1.911 5.989-.424 8.766s4.383 4.508 7.532 4.504zM418.133 332.8c-4.713 0-8.533 3.821-8.533 8.533v25.6c0 4.713 3.82 8.533 8.533 8.533s8.533-3.82 8.533-8.533v-25.6c.001-4.712-3.82-8.533-8.533-8.533zM230.4 375.467h42.667c18.851 0 34.133-15.282 34.133-34.133V204.8c0-18.851-15.282-34.133-34.133-34.133H230.4c-18.851 0-34.133 15.282-34.133 34.133v136.533c0 18.852 15.282 34.134 34.133 34.134zM213.333 204.8c0-9.426 7.641-17.067 17.067-17.067h42.667c9.426 0 17.067 7.641 17.067 17.067v136.533c0 9.426-7.641 17.067-17.067 17.067H230.4c-9.426 0-17.067-7.641-17.067-17.067V204.8zM341.333 418.133H170.667c-4.713 0-8.533 3.82-8.533 8.533s3.82 8.533 8.533 8.533h170.667c4.713 0 8.533-3.82 8.533-8.533s-3.821-8.533-8.534-8.533zM307.2 452.267H204.8c-4.713 0-8.533 3.821-8.533 8.533s3.82 8.533 8.533 8.533h102.4c4.713 0 8.533-3.82 8.533-8.533s-3.82-8.533-8.533-8.533z"/>
</svg>