<svg xmlns="http://www.w3.org/2000/svg" viewBox="0 0 379.29999 377.89999">
  <path d="M 378.9,171 H 197.6 v 65.6 h 95.2 c -10.6,34.1 -35.7,60.3 -79,65.2 -4.8,0.6 -9.9,0.8 -15.2,0.8 -32.5,0 -60.2,-11.7 -79.5,-32.6 C 100.7,250.1 90,221.8 90,187.4 c 0,-33.7 11,-60.7 29.1,-79.8 19.8,-21 48.1,-32.4 79.5,-32.4 5.3,0 10.4,0.3 15.2,1 33.5,4.3 56,23.1 70.3,48.2 L 304.8,113.8 360.9,85 C 327.1,35.3 274.4,0 198.6,0 170,0 143.2,4.7 119.1,13.5 47.6,39.6 0,102.4 0,187.4 c 0,86.1 47,151 119.2,177.5 23.1,8.5 48.8,13 76.4,13 114.3,0 180.9,-82 183.6,-186 0.2,-6.9 0.1,-13.8 -0.3,-20.9 z" fill="#4299e1"/>
  <path d="M 361,85 C 327.2,35.3 274.5,0 198.7,0 170.1,0 143.3,4.7 119.2,13.5 v 94.1 c 19.8,-21 48.1,-32.4 79.5,-32.4 5.3,0 10.4,0.3 15.2,1 v -8.3 h 40 c 32.7,0 51.3,13.5 51.3,40.6 0,1.8 -0.1,3.6 -0.3,5.3 z m -13.6,91.7 c 3.8,-1.7 7.5,-3.6 11,-5.6 H 197.6 v 65.5 h 16.2 v -19.3 h 49 c 37.2,0 64.8,12.4 64.8,47.3 0,38.3 -27.6,50.1 -64.8,50.1 h -49 v -12.9 c -4.8,0.6 -9.9,0.8 -15.2,0.8 -32.5,0 -60.2,-11.7 -79.5,-32.6 v 94.8 c 23.1,8.5 48.8,13 76.4,13 114.3,0 180.9,-82 183.6,-186 -9.6,-6.1 -20.3,-11.1 -31.7,-15.1 z" fill="#2d3748"/>
</svg>
